<svg width="226" height="226" viewBox="0 0 226 226" fill="none" xmlns="http://www.w3.org/2000/svg">
<circle cx="113" cy="113" r="113" fill="#FFD700"/>
<path d="M108.812 141.812V157H45.9375V144.125L75.3125 113C78.0625 109.833 80.25 107.042 81.875 104.625C83.5417 102.208 84.75 100.021 85.5 98.0625C86.25 96.0625 86.625 94.2292 86.625 92.5625C86.625 89.8542 86.1875 87.5625 85.3125 85.6875C84.4792 83.8125 83.25 82.375 81.625 81.375C80 80.375 78.0208 79.875 75.6875 79.875C73.1875 79.875 71.0417 80.5208 69.25 81.8125C67.4583 83.1042 66.0833 84.8958 65.125 87.1875C64.1667 89.4375 63.6875 92 63.6875 94.875H44.0625C44.0625 89.3333 45.3958 84.2917 48.0625 79.75C50.7292 75.1667 54.4583 71.5208 59.25 68.8125C64.0417 66.0625 69.6458 64.6875 76.0625 64.6875C82.6458 64.6875 88.1667 65.7292 92.625 67.8125C97.0833 69.8958 100.458 72.875 102.75 76.75C105.042 80.625 106.188 85.2917 106.188 90.75C106.188 93.8333 105.688 96.8125 104.688 99.6875C103.729 102.562 102.333 105.417 100.5 108.25C98.6667 111.083 96.4583 113.979 93.875 116.938C91.2917 119.854 88.375 122.938 85.125 126.188L71.375 141.812H108.812ZM134.69 116L119.19 112.312L124.503 66H176.628V81.4375H140.503L138.315 100.625C139.44 99.9583 141.211 99.2292 143.628 98.4375C146.044 97.6042 148.753 97.1875 151.753 97.1875C156.211 97.1875 160.169 97.875 163.628 99.25C167.086 100.625 170.003 102.625 172.378 105.25C174.794 107.833 176.607 111.021 177.815 114.812C179.065 118.604 179.69 122.917 179.69 127.75C179.69 131.75 179.065 135.583 177.815 139.25C176.565 142.875 174.648 146.125 172.065 149C169.523 151.833 166.294 154.083 162.378 155.75C158.461 157.417 153.857 158.25 148.565 158.25C144.565 158.25 140.69 157.646 136.94 156.438C133.19 155.229 129.815 153.479 126.815 151.188C123.857 148.854 121.503 146.021 119.753 142.688C118.044 139.354 117.169 135.604 117.128 131.438H136.628C136.836 133.854 137.44 135.938 138.44 137.688C139.44 139.396 140.794 140.729 142.503 141.688C144.211 142.604 146.19 143.062 148.44 143.062C150.607 143.062 152.44 142.646 153.94 141.812C155.44 140.938 156.628 139.75 157.503 138.25C158.419 136.75 159.086 135 159.503 133C159.919 131 160.128 128.854 160.128 126.562C160.128 124.188 159.857 122.062 159.315 120.188C158.773 118.271 157.94 116.646 156.815 115.312C155.69 113.938 154.253 112.896 152.503 112.188C150.794 111.438 148.732 111.062 146.315 111.062C143.148 111.062 140.669 111.583 138.878 112.625C137.086 113.667 135.69 114.792 134.69 116Z" fill="#00BFFF"/>
</svg>
